<svg xmlns="http://www.w3.org/2000/svg" width="600" height="600" viewBox="0 0 600 600">
    <style>
      path { mix-blend-mode: darken; }
    </style><rect opacity="0.5" fill="#7ad9f5" x="0" y="0" width="600" height="600"/><path d="M30.000 30.000L462.00 462.00 M30.000 102.00L462.00 534.00 M30.000 138.00L462.00 570.00 M30.000 210.00L354.00 534.00 M30.000 246.00L282.00 498.00 M30.000 282.00L174.00 426.00 M30.000 318.00L102.00 390.00 M30.000 354.00L66.000 390.00 M30.000 390.00L30.000 390.00 M30.000 426.00L66.000 426.00 M30.000 462.00L66.000 498.00 M30.000 498.00L30.000 498.00 M30.000 534.00L30.000 534.00 M30.000 570.00L30.000 570.00 M66.000 30.000L498.00 30.000 M66.000 102.00L498.00 534.00 M66.000 210.00L390.00 534.00 M66.000 390.00L66.000 390.00 M66.000 462.00L66.000 462.00 M66.000 498.00L66.000 498.00 M66.000 534.00L66.000 534.00 M66.000 570.00L102.00 570.00 M102.00 66.000L534.00 498.00 M102.00 570.00L138.00 570.00 M138.00 66.000L570.00 66.000 M174.00 102.00L534.00 462.00 M210.00 102.00L498.00 102.00 M246.00 138.00L390.00 282.00 M282.00 138.00L354.00 138.00 M318.00 174.00L354.00 174.00 M354.00 138.00L390.00 138.00 M354.00 174.00L426.00 174.00 M354.00 210.00L426.00 210.00 M390.00 246.00L462.00 318.00 M426.00 138.00L498.00 138.00 M426.00 246.00L498.00 246.00 M426.00 318.00L426.00 318.00 M462.00 174.00L534.00 174.00 M462.00 282.00L498.00 282.00 M462.00 354.00L498.00 390.00 M498.00 30.000L570.00 30.000 M498.00 102.00L570.00 174.00 M498.00 210.00L570.00 282.00 M498.00 318.00L534.00 318.00 M498.00 354.00L570.00 426.00 M498.00 498.00L570.00 498.00 M498.00 570.00L498.00 570.00 M534.00 102.00L570.00 138.00 M534.00 210.00L570.00 246.00 M534.00 282.00L534.00 282.00 M534.00 318.00L570.00 318.00 M534.00 354.00L570.00 354.00 M534.00 426.00L570.00 462.00 M534.00 462.00L570.00 498.00 M534.00 534.00L570.00 570.00 M570.00 30.000L570.00 30.000 M570.00 102.00L570.00 102.00 M570.00 210.00L570.00 210.00 M570.00 318.00L570.00 318.00 M570.00 390.00L570.00 390.00 M570.00 462.00L570.00 462.00 M570.00 534.00L570.00 534.00" opacity="1" stroke-width="23" stroke="#f6f6f6" stroke-linecap="round" fill="transparent"><animate 
    attributeName="visibility"
    from="hidden"
    to="hidden"
    values="hidden; hidden; visible; visible; hidden; hidden; visible; visible; hidden; hidden;"
    animateMotion="discrete"
    keyTimes="0; 0; 0; 0.5; 0.5; 0.5; 0.5; 1; 1; 1"
    dur="0.2s"
    repeatCount="indefinite"
    />
    </path><path d="M30.000 30.000L102.00 30.000 M30.000 498.00L102.00 570.00 M30.000 570.00L30.000 570.00 M66.000 498.00L138.00 570.00 M66.000 570.00L66.000 570.00 M102.00 498.00L534.00 498.00 M138.00 534.00L174.00 570.00 M174.00 462.00L426.00 462.00 M174.00 534.00L426.00 534.00 M210.00 570.00L210.00 570.00 M246.00 570.00L282.00 570.00 M282.00 390.00L354.00 390.00 M282.00 426.00L354.00 426.00 M282.00 570.00L354.00 570.00 M318.00 318.00L462.00 318.00 M318.00 354.00L462.00 354.00 M354.00 282.00L570.00 282.00 M390.00 30.000L426.00 66.000 M390.00 66.000L390.00 66.000 M390.00 102.00L462.00 174.00 M390.00 138.00L498.00 246.00 M390.00 246.00L570.00 246.00 M390.00 390.00L570.00 390.00 M390.00 426.00L570.00 426.00 M390.00 570.00L570.00 570.00 M426.00 30.000L462.00 30.000 M426.00 102.00L498.00 174.00 M462.00 66.000L498.00 102.00 M462.00 102.00L570.00 210.00 M462.00 354.00L570.00 354.00 M462.00 462.00L570.00 462.00 M462.00 534.00L570.00 534.00 M498.00 30.000L498.00 30.000 M498.00 66.000L570.00 66.000 M498.00 210.00L570.00 210.00 M534.00 30.000L570.00 30.000 M534.00 102.00L570.00 138.00 M534.00 138.00L570.00 174.00 M534.00 318.00L570.00 318.00 M534.00 498.00L570.00 534.00 M570.00 30.000L570.00 30.000 M570.00 66.000L570.00 66.000 M570.00 102.00L570.00 102.00 M570.00 138.00L570.00 138.00 M570.00 174.00L570.00 174.00 M570.00 390.00L570.00 390.00 M570.00 498.00L570.00 498.00 M570.00 570.00L570.00 570.00" opacity="1" stroke-width="23" stroke="#5d13e7" stroke-linecap="round" fill="transparent"><animate 
    attributeName="visibility"
    from="hidden"
    to="hidden"
    values="hidden; hidden; visible; visible; hidden; hidden; visible; visible; hidden; hidden;"
    animateMotion="discrete"
    keyTimes="0; 0; 0; 0.5; 0.5; 0.5; 0.5; 1; 1; 1"
    dur="0.2s"
    repeatCount="indefinite"
    />
    </path><path d="M30.000 534.00L210.00 534.00 M30.000 570.00L30.000 570.00 M66.000 570.00L66.000 570.00 M102.00 570.00L102.00 570.00 M138.00 30.000L174.00 66.000 M138.00 498.00L318.00 498.00 M138.00 570.00L354.00 570.00 M174.00 30.000L210.00 66.000 M210.00 30.000L246.00 66.000 M210.00 102.00L210.00 102.00 M210.00 462.00L354.00 462.00 M246.00 30.000L246.00 30.000 M246.00 66.000L246.00 66.000 M246.00 102.00L246.00 102.00 M246.00 138.00L282.00 138.00 M246.00 174.00L282.00 210.00 M246.00 318.00L318.00 390.00 M246.00 354.00L354.00 462.00 M282.00 30.000L282.00 30.000 M282.00 66.000L318.00 102.00 M282.00 138.00L318.00 138.00 M282.00 174.00L354.00 174.00 M282.00 210.00L354.00 210.00 M282.00 246.00L354.00 318.00 M282.00 318.00L390.00 426.00 M318.00 30.000L318.00 30.000 M318.00 66.000L354.00 66.000 M318.00 246.00L426.00 354.00 M318.00 390.00L462.00 534.00 M318.00 534.00L426.00 534.00 M354.00 30.000L390.00 66.000 M354.00 66.000L426.00 138.00 M354.00 138.00L462.00 138.00 M354.00 174.00L462.00 282.00 M354.00 210.00L498.00 354.00 M354.00 246.00L498.00 390.00 M354.00 570.00L354.00 570.00 M390.00 30.000L426.00 30.000 M390.00 66.000L462.00 66.000 M390.00 174.00L534.00 174.00 M390.00 426.00L570.00 426.00 M390.00 498.00L462.00 570.00 M426.00 210.00L570.00 354.00 M426.00 462.00L570.00 462.00 M426.00 570.00L426.00 570.00 M462.00 30.000L534.00 102.00 M462.00 102.00L570.00 102.00 M462.00 210.00L570.00 210.00 M462.00 282.00L570.00 390.00 M462.00 498.00L570.00 498.00 M498.00 30.000L570.00 102.00 M498.00 138.00L570.00 138.00 M498.00 246.00L570.00 246.00 M498.00 534.00L534.00 570.00 M498.00 570.00L570.00 570.00 M534.00 30.000L570.00 30.000 M534.00 282.00L570.00 282.00 M534.00 390.00L570.00 390.00 M570.00 30.000L570.00 30.000 M570.00 66.000L570.00 66.000 M570.00 138.00L570.00 138.00 M570.00 174.00L570.00 174.00 M570.00 246.00L570.00 246.00 M570.00 318.00L570.00 318.00 M570.00 354.00L570.00 354.00 M570.00 390.00L570.00 390.00" opacity="1" stroke-width="23" stroke="#bdf2d5" stroke-linecap="round" fill="transparent"><animate 
    attributeName="visibility"
    from="hidden"
    to="hidden"
    values="hidden; hidden; visible; visible; hidden; hidden; visible; visible; hidden; hidden;"
    animateMotion="discrete"
    keyTimes="0; 0; 0; 0.5; 0.5; 0.5; 0.5; 1; 1; 1"
    dur="0.2s"
    repeatCount="indefinite"
    />
    </path></svg>