<svg xmlns="http://www.w3.org/2000/svg" width="600" height="600" viewBox="0 0 600 600">
    <style>
      path { mix-blend-mode: darken; }
    </style><rect opacity="0.5" fill="#f35e3e" x="0" y="0" width="600" height="600"/><path d="M30.000 289.20L30.000 289.20 M30.000 310.80L51.600 332.40 M30.000 332.40L73.200 375.60 M30.000 354.00L94.800 418.80 M30.000 397.20L138.00 505.20 M30.000 440.40L159.60 570.00 M30.000 483.60L116.40 570.00 M30.000 505.20L94.800 570.00 M51.600 289.20L73.200 289.20 M51.600 310.80L94.800 354.00 M51.600 332.40L116.40 397.20 M51.600 397.20L159.60 505.20 M51.600 483.60L138.00 570.00 M73.200 310.80L116.40 310.80 M94.800 289.20L138.00 289.20 M94.800 332.40L181.20 332.40 M94.800 354.00L202.80 354.00 M94.800 397.20L246.00 397.20 M94.800 418.80L246.00 570.00 M94.800 483.60L181.20 570.00 M116.40 30.000L202.80 116.40 M116.40 310.80L202.80 310.80 M116.40 418.80L289.20 418.80 M138.00 30.000L202.80 94.800 M138.00 73.200L202.80 138.00 M138.00 246.00L181.20 289.20 M138.00 375.60L289.20 375.60 M138.00 440.40L332.40 440.40 M138.00 505.20L202.80 570.00 M159.60 30.000L224.40 30.000 M159.60 138.00L181.20 138.00 M159.60 159.60L159.60 159.60 M159.60 181.20L181.20 181.20 M159.60 202.80L181.20 224.40 M159.60 224.40L202.80 267.60 M159.60 246.00L224.40 310.80 M159.60 462.00L267.60 570.00 M159.60 570.00L159.60 570.00 M181.20 51.600L224.40 94.800 M181.20 138.00L181.20 138.00 M181.20 159.60L181.20 159.60 M181.20 181.20L202.80 181.20 M181.20 202.80L224.40 202.80 M181.20 224.40L224.40 224.40 M181.20 462.00L397.20 462.00 M202.80 51.600L246.00 94.800 M202.80 94.800L224.40 94.800 M202.80 159.60L224.40 181.20 M202.80 246.00L289.20 246.00 M202.80 332.40L332.40 332.40 M202.80 483.60L440.40 483.60 M224.40 51.600L246.00 73.200 M224.40 116.40L224.40 116.40 M224.40 138.00L246.00 159.60 M224.40 159.60L246.00 159.60 M224.40 181.20L267.60 181.20 M224.40 267.60L332.40 267.60 M224.40 310.80L354.00 310.80 M224.40 354.00L375.60 354.00 M224.40 505.20L462.00 505.20 M224.40 570.00L224.40 570.00 M246.00 30.000L267.60 51.600 M246.00 94.800L246.00 94.800 M246.00 116.40L246.00 116.40 M246.00 138.00L267.60 159.60 M246.00 159.60L267.60 181.20 M246.00 224.40L310.80 224.40 M246.00 526.80L289.20 570.00 M267.60 30.000L289.20 30.000 M267.60 73.200L289.20 94.800 M267.60 94.800L267.60 94.800 M267.60 116.40L267.60 116.40 M267.60 138.00L289.20 138.00 M267.60 202.80L332.40 202.80 M267.60 397.20L462.00 397.20 M267.60 526.80L310.80 570.00 M289.20 30.000L310.80 51.600 M289.20 51.600L310.80 51.600 M289.20 73.200L310.80 94.800 M289.20 94.800L289.20 94.800 M289.20 116.40L310.80 138.00 M289.20 138.00L310.80 138.00 M289.20 159.60L332.40 159.60 M289.20 375.60L462.00 375.60 M289.20 526.80L332.40 570.00 M310.80 30.000L354.00 30.000 M310.80 51.600L332.40 73.200 M310.80 73.200L332.40 94.800 M310.80 116.40L310.80 116.40 M310.80 246.00L397.20 246.00 M310.80 526.80L548.40 526.80 M332.40 51.600L354.00 51.600 M332.40 73.200L354.00 73.200 M332.40 94.800L332.40 94.800 M332.40 116.40L332.40 116.40 M332.40 138.00L354.00 138.00 M332.40 181.20L375.60 181.20 M332.40 224.40L397.20 224.40 M332.40 548.40L548.40 548.40 M354.00 30.000L397.20 30.000 M354.00 51.600L375.60 51.600 M354.00 73.200L375.60 94.800 M354.00 94.800L354.00 94.800 M354.00 116.40L354.00 116.40 M354.00 138.00L375.60 138.00 M354.00 159.60L375.60 159.60 M354.00 267.60L440.40 267.60 M354.00 332.40L483.60 332.40 M354.00 570.00L570.00 570.00 M375.60 73.200L397.20 94.800 M375.60 116.40L375.60 116.40 M375.60 159.60L397.20 181.20 M375.60 181.20L418.80 224.40 M375.60 202.80L418.80 246.00 M375.60 289.20L483.60 289.20 M375.60 310.80L483.60 310.80 M375.60 418.80L548.40 418.80 M397.20 30.000L462.00 30.000 M397.20 51.600L440.40 94.800 M397.20 116.40L397.20 116.40 M397.20 138.00L397.20 138.00 M397.20 159.60L418.80 159.60 M397.20 246.00L462.00 246.00 M397.20 354.00L526.80 354.00 M418.80 51.600L462.00 51.600 M418.80 94.800L440.40 116.40 M418.80 138.00L418.80 138.00 M418.80 181.20L440.40 181.20 M418.80 224.40L462.00 224.40 M418.80 440.40L570.00 440.40 M440.40 73.200L483.60 116.40 M440.40 138.00L462.00 159.60 M440.40 159.60L440.40 159.60 M440.40 202.80L462.00 202.80 M462.00 51.600L526.80 51.600 M462.00 73.200L526.80 138.00 M462.00 116.40L505.20 159.60 M462.00 159.60L462.00 159.60 M462.00 181.20L462.00 181.20 M462.00 202.80L483.60 224.40 M462.00 224.40L483.60 246.00 M462.00 375.60L570.00 375.60 M462.00 397.20L570.00 397.20 M462.00 462.00L570.00 462.00 M462.00 483.60L570.00 483.60 M483.60 30.000L570.00 30.000 M483.60 73.200L548.40 73.200 M483.60 181.20L483.60 181.20 M483.60 202.80L483.60 202.80 M483.60 224.40L505.20 246.00 M483.60 267.60L526.80 267.60 M483.60 332.40L570.00 332.40 M483.60 505.20L570.00 505.20 M505.20 94.800L570.00 159.60 M505.20 138.00L548.40 181.20 M505.20 181.20L526.80 202.80 M505.20 202.80L505.20 202.80 M505.20 224.40L526.80 224.40 M505.20 289.20L548.40 289.20 M526.80 94.800L570.00 94.800 M526.80 181.20L548.40 181.20 M526.80 224.40L526.80 224.40 M526.80 246.00L548.40 246.00 M526.80 310.80L570.00 310.80 M548.40 51.600L570.00 51.600 M548.40 116.40L570.00 116.40 M548.40 159.60L570.00 159.60 M548.40 202.80L570.00 224.40 M548.40 224.40L548.40 224.40 M548.40 267.60L570.00 289.20 M548.40 289.20L570.00 289.20 M548.40 526.80L570.00 526.80 M570.00 73.200L570.00 73.200 M570.00 94.800L570.00 94.800 M570.00 116.40L570.00 116.40 M570.00 138.00L570.00 138.00 M570.00 159.60L570.00 159.60 M570.00 181.20L570.00 181.20 M570.00 202.80L570.00 202.80 M570.00 224.40L570.00 224.40 M570.00 246.00L570.00 246.00 M570.00 267.60L570.00 267.60 M570.00 354.00L570.00 354.00 M570.00 418.80L570.00 418.80 M570.00 462.00L570.00 462.00 M570.00 505.20L570.00 505.20 M570.00 526.80L570.00 526.80 M570.00 548.40L570.00 548.40 M570.00 570.00L570.00 570.00" opacity="1" stroke-width="12" stroke="#6173f4" stroke-linecap="round" fill="transparent"><animate 
    attributeName="visibility"
    from="hidden"
    to="hidden"
    values="hidden; hidden; visible; visible; hidden; hidden; visible; visible; hidden; hidden;"
    animateMotion="discrete"
    keyTimes="0; 0; 0; 0.5; 0.5; 0.5; 0.5; 1; 1; 1"
    dur="0.2s"
    repeatCount="indefinite"
    />
    </path><path d="M30.000 30.000L267.60 30.000 M30.000 51.600L267.60 289.20 M30.000 94.800L246.00 310.80 M30.000 267.60L181.20 418.80 M30.000 354.00L202.80 526.80 M30.000 440.40L159.60 570.00 M30.000 462.00L138.00 570.00 M30.000 548.40L51.600 570.00 M30.000 570.00L30.000 570.00 M51.600 51.600L267.60 267.60 M51.600 94.800L246.00 289.20 M51.600 159.60L224.40 332.40 M51.600 181.20L202.80 332.40 M51.600 202.80L202.80 354.00 M51.600 246.00L202.80 397.20 M51.600 332.40L202.80 483.60 M51.600 505.20L116.40 570.00 M51.600 526.80L94.800 570.00 M73.200 51.600L289.20 267.60 M73.200 159.60L224.40 310.80 M94.800 51.600L310.80 51.600 M116.40 73.200L310.80 73.200 M116.40 289.20L246.00 418.80 M116.40 375.60L267.60 526.80 M116.40 418.80L267.60 570.00 M116.40 462.00L224.40 570.00 M116.40 505.20L181.20 570.00 M116.40 570.00L116.40 570.00 M138.00 94.800L310.80 94.800 M138.00 354.00L267.60 483.60 M138.00 505.20L202.80 570.00 M159.60 116.40L310.80 116.40 M181.20 138.00L332.40 138.00 M181.20 418.80L332.40 570.00 M181.20 570.00L181.20 570.00 M202.80 159.60L332.40 289.20 M202.80 354.00L332.40 354.00 M224.40 159.60L354.00 159.60 M224.40 332.40L354.00 332.40 M224.40 375.60L354.00 505.20 M224.40 570.00L224.40 570.00 M246.00 181.20L375.60 310.80 M246.00 375.60L397.20 526.80 M246.00 440.40L375.60 570.00 M246.00 526.80L289.20 570.00 M246.00 570.00L246.00 570.00 M267.60 181.20L397.20 310.80 M267.60 375.60L418.80 526.80 M267.60 440.40L397.20 570.00 M289.20 30.000L440.40 181.20 M289.20 375.60L440.40 526.80 M289.20 505.20L354.00 570.00 M289.20 548.40L310.80 570.00 M310.80 30.000L462.00 181.20 M310.80 202.80L462.00 202.80 M310.80 375.60L483.60 548.40 M332.40 30.000L483.60 181.20 M332.40 224.40L505.20 224.40 M332.40 375.60L505.20 548.40 M332.40 570.00L332.40 570.00 M354.00 30.000L505.20 30.000 M354.00 246.00L526.80 418.80 M354.00 310.80L548.40 505.20 M375.60 51.600L526.80 51.600 M375.60 246.00L570.00 246.00 M375.60 354.00L570.00 548.40 M375.60 526.80L418.80 570.00 M397.20 73.200L548.40 224.40 M397.20 267.60L570.00 440.40 M397.20 418.80L548.40 570.00 M418.80 73.200L570.00 224.40 M418.80 267.60L570.00 418.80 M418.80 570.00L570.00 570.00 M440.40 73.200L570.00 202.80 M440.40 267.60L570.00 267.60 M440.40 354.00L570.00 483.60 M440.40 375.60L570.00 505.20 M440.40 440.40L570.00 570.00 M462.00 73.200L570.00 73.200 M462.00 289.20L570.00 289.20 M483.60 94.800L570.00 181.20 M483.60 310.80L570.00 310.80 M505.20 30.000L570.00 30.000 M505.20 94.800L570.00 159.60 M505.20 332.40L570.00 397.20 M526.80 94.800L570.00 138.00 M526.80 332.40L570.00 332.40 M548.40 51.600L570.00 51.600 M548.40 94.800L570.00 94.800 M548.40 354.00L570.00 354.00 M570.00 116.40L570.00 116.40 M570.00 159.60L570.00 159.60 M570.00 181.20L570.00 181.20 M570.00 202.80L570.00 202.80 M570.00 224.40L570.00 224.40 M570.00 310.80L570.00 310.80 M570.00 375.60L570.00 375.60 M570.00 397.20L570.00 397.20 M570.00 418.80L570.00 418.80 M570.00 462.00L570.00 462.00 M570.00 483.60L570.00 483.60 M570.00 570.00L570.00 570.00" opacity="1" stroke-width="12" stroke="#3b2e40" stroke-linecap="round" fill="transparent"><animate 
    attributeName="visibility"
    from="hidden"
    to="hidden"
    values="hidden; hidden; visible; visible; hidden; hidden; visible; visible; hidden; hidden;"
    animateMotion="discrete"
    keyTimes="0; 0; 0; 0.5; 0.5; 0.5; 0.5; 1; 1; 1"
    dur="0.2s"
    repeatCount="indefinite"
    />
    </path><path d="M30.000 30.000L181.20 30.000 M30.000 51.600L202.80 51.600 M30.000 73.200L202.80 73.200 M30.000 94.800L202.80 94.800 M30.000 116.40L202.80 289.20 M30.000 224.40L224.40 418.80 M30.000 246.00L224.40 440.40 M51.600 116.40L202.80 267.60 M51.600 202.80L224.40 375.60 M73.200 116.40L224.40 116.40 M73.200 181.20L224.40 332.40 M94.800 138.00L224.40 138.00 M94.800 224.40L224.40 354.00 M116.40 159.60L224.40 267.60 M138.00 159.60L224.40 246.00 M159.60 159.60L246.00 246.00 M181.20 30.000L246.00 30.000 M181.20 159.60L246.00 224.40 M202.80 51.600L267.60 116.40 M202.80 94.800L267.60 159.60 M202.80 159.60L246.00 202.80 M224.40 51.600L267.60 94.800 M224.40 94.800L267.60 138.00 M224.40 138.00L267.60 181.20 M224.40 159.60L267.60 202.80 M224.40 246.00L267.60 246.00 M246.00 51.600L289.20 51.600 M246.00 202.80L267.60 224.40 M267.60 30.000L289.20 30.000 M267.60 73.200L289.20 73.200 M267.60 181.20L289.20 202.80 M267.60 202.80L289.20 224.40 M267.60 224.40L289.20 246.00 M267.60 246.00L289.20 267.60 M267.60 267.60L289.20 289.20 M289.20 30.000L310.80 51.600 M289.20 94.800L310.80 116.40 M289.20 116.40L310.80 138.00 M289.20 138.00L289.20 138.00 M289.20 159.60L289.20 159.60 M289.20 181.20L289.20 181.20 M289.20 246.00L289.20 246.00 M289.20 267.60L289.20 267.60 M310.80 30.000L332.40 51.600 M310.80 73.200L310.80 73.200 M310.80 94.800L310.80 94.800 M310.80 116.40L310.80 116.40 M310.80 159.60L310.80 159.60 M310.80 181.20L310.80 181.20 M310.80 202.80L310.80 202.80 M310.80 224.40L310.80 224.40 M310.80 246.00L310.80 246.00 M310.80 267.60L310.80 267.60 M310.80 289.20L310.80 289.20 M332.40 30.000L332.40 30.000 M332.40 73.200L332.40 73.200 M332.40 94.800L332.40 94.800 M332.40 116.40L332.40 116.40 M332.40 138.00L332.40 138.00 M332.40 159.60L354.00 181.20 M332.40 202.80L354.00 202.80 M332.40 224.40L354.00 246.00 M332.40 246.00L354.00 267.60 M332.40 267.60L354.00 289.20 M332.40 289.20L354.00 289.20 M354.00 30.000L354.00 30.000 M354.00 51.600L375.60 51.600 M354.00 73.200L375.60 73.200 M354.00 94.800L375.60 116.40 M354.00 116.40L375.60 116.40 M354.00 138.00L375.60 159.60 M354.00 224.40L375.60 246.00 M354.00 289.20L375.60 289.20 M354.00 310.80L375.60 332.40 M375.60 30.000L397.20 30.000 M375.60 51.600L397.20 51.600 M375.60 73.200L397.20 94.800 M375.60 94.800L397.20 116.40 M375.60 116.40L397.20 138.00 M375.60 181.20L397.20 181.20 M375.60 202.80L418.80 246.00 M375.60 267.60L418.80 310.80 M375.60 310.80L397.20 332.40 M375.60 332.40L397.20 354.00 M397.20 73.200L440.40 116.40 M397.20 94.800L440.40 138.00 M397.20 116.40L440.40 159.60 M397.20 159.60L440.40 159.60 M397.20 202.80L440.40 202.80 M397.20 246.00L440.40 246.00 M397.20 267.60L440.40 310.80 M397.20 310.80L440.40 354.00 M397.20 354.00L440.40 354.00 M418.80 181.20L462.00 224.40 M418.80 224.40L462.00 267.60 M418.80 267.60L462.00 267.60 M418.80 310.80L462.00 310.80 M418.80 375.60L418.80 418.80 M440.40 138.00L505.20 202.80 M440.40 181.20L505.20 246.00 M440.40 224.40L505.20 289.20 M440.40 289.20L505.20 354.00 M440.40 332.40L483.60 375.60 M440.40 375.60L483.60 418.80 M462.00 267.60L526.80 332.40 M462.00 289.20L526.80 354.00 M462.00 332.40L526.80 397.20 M462.00 375.60L505.20 418.80 M483.60 246.00L570.00 332.40 M483.60 418.80L526.80 462.00 M483.60 440.40L526.80 483.60 M505.20 224.40L570.00 224.40 M526.80 246.00L570.00 289.20 M526.80 310.80L570.00 354.00 M526.80 375.60L570.00 418.80 M526.80 418.80L570.00 462.00 M526.80 440.40L570.00 483.60 M526.80 462.00L570.00 505.20 M548.40 289.20L570.00 310.80 M548.40 354.00L570.00 375.60 M548.40 375.60L570.00 397.20 M548.40 418.80L570.00 440.40 M548.40 505.20L570.00 526.80 M570.00 332.40L570.00 332.40 M570.00 354.00L570.00 354.00 M570.00 397.20L570.00 397.20 M570.00 418.80L570.00 418.80 M570.00 440.40L570.00 440.40 M570.00 462.00L570.00 462.00 M570.00 526.80L570.00 526.80" opacity="1" stroke-width="12" stroke="#fcefed" stroke-linecap="round" fill="transparent"><animate 
    attributeName="visibility"
    from="hidden"
    to="hidden"
    values="hidden; hidden; visible; visible; hidden; hidden; visible; visible; hidden; hidden;"
    animateMotion="discrete"
    keyTimes="0; 0; 0; 0.5; 0.5; 0.5; 0.5; 1; 1; 1"
    dur="0.2s"
    repeatCount="indefinite"
    />
    </path></svg>