<?xml version="1.0" standalone="no"?>
<!DOCTYPE svg PUBLIC "-//W3C//DTD SVG 20010904//EN"
 "http://www.w3.org/TR/2001/REC-SVG-20010904/DTD/svg10.dtd">
<svg version="1.0" xmlns="http://www.w3.org/2000/svg"
 width="700.000000pt" height="700.000000pt" viewBox="0 0 700.000000 700.000000"
 preserveAspectRatio="xMidYMid meet">
<metadata>
Created by potrace 1.14, written by Peter Selinger 2001-2017
</metadata>
<g transform="translate(0.000000,700.000000) scale(0.100000,-0.100000)"
fill="#000000" stroke="none">
<path d="M2397 5892 l-367 -367 0 -1103 0 -1102 -370 0 -370 0 -1 478 c0 339
-4 486 -12 507 -18 45 -38 70 -77 94 -34 21 -43 21 -522 21 l-488 0 0 -1108 0
-1108 48 44 c68 65 179 135 260 165 103 38 189 50 316 45 180 -9 334 -72 465
-193 77 -72 105 -74 201 -10 223 148 508 177 758 78 35 -14 64 -24 65 -22 137
233 309 369 542 429 112 29 281 29 390 -1 44 -11 89 -23 100 -26 16 -3 27 10
59 74 56 110 163 216 277 272 260 128 540 81 746 -125 l83 -83 53 24 c248 109
523 91 759 -52 86 -51 198 -156 247 -229 l29 -45 45 86 c25 47 66 111 91 144
117 151 303 275 485 322 l51 13 -2 870 -3 871 -23 32 c-12 17 -43 42 -70 55
l-47 23 -680 0 -681 0 -49 -26 c-28 -14 -60 -40 -72 -59 l-23 -33 0 -488 0
-489 -370 0 -370 0 0 828 0 827 -368 368 -367 367 -185 0 -185 0 -368 -368z
m1103 -917 l0 -185 -185 0 -185 0 0 185 0 185 185 0 185 0 0 -185z m2398 -552
l2 -183 -185 0 -185 0 0 185 0 185 183 -2 182 -3 3 -182z m-2398 -188 l0 -185
-185 0 -185 0 0 185 0 185 185 0 185 0 0 -185z m2400 -550 l0 -185 -185 0
-185 0 0 185 0 185 185 0 185 0 0 -185z m-2770 -185 l0 -190 -182 2 -183 3 -3
175 c-1 96 0 180 2 187 4 10 48 13 186 13 l180 0 0 -190z m1840 -185 l0 -185
-180 0 -180 0 0 185 0 185 180 0 180 0 0 -185z m-2950 -550 l0 -185 -180 0
-180 0 0 185 0 185 180 0 180 0 0 -185z"/>
</g>
</svg>
