<svg width="790" height="682" viewBox="0 0 790 682" fill="none" xmlns="http://www.w3.org/2000/svg">
<path d="M391.5 629.558C454.33 597.638 511.4 573.148 552.5 550.558C660.38 491.258 686.18 472.308 711.5 443.558C732.98 419.168 768.94 378.338 778.5 319.558C798.12 198.938 690.59 100.928 675.5 87.5582C547.05 -26.1618 370.3 15.5582 350.5 20.5582" stroke="white" stroke-width="18" stroke-linecap="round" stroke-linejoin="round"/>
<path d="M10 212.058C43.3771 198.876 77.6254 188.017 112.5 179.558C144.8 171.728 168.06 166.088 198 164.058C228.57 161.988 338.33 154.298 376.5 215.558C388.69 235.118 390.23 257.158 390.5 262.558C392.77 307.728 364.09 339.558 357 347.058C326.578 385.11 291.846 419.507 253.5 449.558C207.183 485.833 156.021 515.453 101.5 537.558C100.1 537.948 74.4 544.808 63.34 531.638C52.86 519.148 62.8 497.288 67 488.058C87.83 442.258 139.73 423.188 160.5 415.558L239.5 395.558" stroke="white" stroke-width="18" stroke-linecap="round" stroke-linejoin="round"/>
<path d="M194.5 169.558C189.313 206.225 184.313 243.225 179.5 280.558C163.72 403.108 147.83 522.148 137.5 639.558C137.5 639.558 148 643.058 151 638.058" stroke="white" stroke-width="19" stroke-linecap="round" stroke-linejoin="round"/>
<path d="M153.5 633.558C161.81 637.308 187.77 647.688 217.5 638.558C241.5 631.188 255.44 614.948 263.5 605.558C274.272 592.958 282.43 578.341 287.5 562.558" stroke="white" stroke-width="18" stroke-linecap="round" stroke-linejoin="round"/>
<path d="M161 622.058C168.87 609.058 187.93 580.058 216 560.058C220.69 556.728 236.42 545.898 254 544.058C261.392 543.116 268.9 543.799 276 546.058C279.128 547.083 282.143 548.424 285 550.058" stroke="white" stroke-width="33" stroke-linecap="round" stroke-linejoin="round"/>
<path d="M295.5 548.558C314.5 546.228 360.5 539.898 379.5 537.558" stroke="white" stroke-width="18" stroke-linejoin="round"/>
<path d="M476.5 191.558C431.17 353.898 387.83 510.228 342.5 672.558" stroke="white" stroke-width="18" stroke-linecap="round" stroke-linejoin="round"/>
<path d="M372.5 566.558C373.63 563.558 406.5 521.558 431.5 516.558H431.62C440.52 514.818 449.08 522.108 450.5 523.558C459.24 532.618 440.01 572.238 411.5 607.558C393.006 630.386 371.473 650.574 347.5 667.558" stroke="white" stroke-width="18" stroke-linecap="round" stroke-linejoin="round"/>
</svg>
